<svg width="19" height="17" viewBox="0 0 19 17" fill="none" xmlns="http://www.w3.org/2000/svg">
<path d="M6.633 16.2938C5.72367 16.2938 4.90233 16.0885 4.169 15.6778C3.443 15.2598 2.816 14.6841 2.288 13.9508C1.76 13.2175 1.35667 12.3705 1.078 11.4098C0.799333 10.4418 0.66 9.40781 0.66 8.30781C0.66 7.20781 0.799333 6.17381 1.078 5.20581C1.35667 4.23781 1.76 3.39081 2.288 2.66481C2.816 1.93148 3.443 1.35948 4.169 0.948812C4.90233 0.530811 5.72367 0.321811 6.633 0.321811C7.52767 0.321811 8.34167 0.530811 9.075 0.948812C9.80833 1.35948 10.4317 1.93148 10.945 2.66481C11.4657 3.39081 11.8653 4.23781 12.144 5.20581C12.4227 6.17381 12.562 7.20781 12.562 8.30781C12.562 9.40781 12.4227 10.4418 12.144 11.4098C11.8653 12.3705 11.4657 13.2175 10.945 13.9508C10.4317 14.6841 9.80833 15.2598 9.075 15.6778C8.34167 16.0885 7.52767 16.2938 6.633 16.2938ZM6.633 14.0058C7.47633 14.0058 8.17667 13.7418 8.734 13.2138C9.29867 12.6785 9.72033 11.9781 9.999 11.1128C10.2777 10.2475 10.417 9.31248 10.417 8.30781C10.417 7.25181 10.2703 6.29481 9.977 5.43681C9.691 4.57148 9.26567 3.88581 8.701 3.37981C8.14367 2.86648 7.45433 2.60981 6.633 2.60981C5.98033 2.60981 5.412 2.76381 4.928 3.07181C4.45133 3.37981 4.05533 3.80148 3.74 4.33681C3.432 4.87215 3.19733 5.48081 3.036 6.16281C2.882 6.84481 2.805 7.55981 2.805 8.30781C2.805 9.31248 2.948 10.2475 3.234 11.1128C3.52 11.9781 3.94533 12.6785 4.51 13.2138C5.082 13.7418 5.78967 14.0058 6.633 14.0058ZM15.9299 16.0078V2.89581H14.0929L14.7199 0.607811H18.2179V16.0078H15.9299Z" fill="#E7E7EB"/>
</svg>
