<svg width="25" height="17" viewBox="0 0 25 17" fill="none" xmlns="http://www.w3.org/2000/svg">
<path d="M6.633 16.2938C5.72367 16.2938 4.90233 16.0885 4.169 15.6778C3.443 15.2598 2.816 14.6841 2.288 13.9508C1.76 13.2175 1.35667 12.3705 1.078 11.4098C0.799333 10.4418 0.66 9.40781 0.66 8.30781C0.66 7.20781 0.799333 6.17381 1.078 5.20581C1.35667 4.23781 1.76 3.39081 2.288 2.66481C2.816 1.93148 3.443 1.35948 4.169 0.948812C4.90233 0.530811 5.72367 0.321811 6.633 0.321811C7.52767 0.321811 8.34167 0.530811 9.075 0.948812C9.80833 1.35948 10.4317 1.93148 10.945 2.66481C11.4657 3.39081 11.8653 4.23781 12.144 5.20581C12.4227 6.17381 12.562 7.20781 12.562 8.30781C12.562 9.40781 12.4227 10.4418 12.144 11.4098C11.8653 12.3705 11.4657 13.2175 10.945 13.9508C10.4317 14.6841 9.80833 15.2598 9.075 15.6778C8.34167 16.0885 7.52767 16.2938 6.633 16.2938ZM6.633 14.0058C7.47633 14.0058 8.17667 13.7418 8.734 13.2138C9.29867 12.6785 9.72033 11.9781 9.999 11.1128C10.2777 10.2475 10.417 9.31248 10.417 8.30781C10.417 7.25181 10.2703 6.29481 9.977 5.43681C9.691 4.57148 9.26567 3.88581 8.701 3.37981C8.14367 2.86648 7.45433 2.60981 6.633 2.60981C5.98033 2.60981 5.412 2.76381 4.928 3.07181C4.45133 3.37981 4.05533 3.80148 3.74 4.33681C3.432 4.87215 3.19733 5.48081 3.036 6.16281C2.882 6.84481 2.805 7.55981 2.805 8.30781C2.805 9.31248 2.948 10.2475 3.234 11.1128C3.52 11.9781 3.94533 12.6785 4.51 13.2138C5.082 13.7418 5.78967 14.0058 6.633 14.0058ZM14.0929 16.0078V13.9728C14.6136 13.5401 15.2112 13.0378 15.8859 12.4658C16.5606 11.8865 17.2462 11.2741 17.9429 10.6288C18.6396 9.97615 19.2812 9.32715 19.8679 8.68181C20.4546 8.02915 20.9276 7.41315 21.2869 6.83381C21.6536 6.24715 21.8369 5.73748 21.8369 5.30481C21.8369 4.81348 21.7159 4.36615 21.4739 3.96281C21.2392 3.55215 20.9202 3.22581 20.5169 2.98381C20.1136 2.73448 19.6662 2.60981 19.1749 2.60981C18.6836 2.60981 18.2326 2.73448 17.8219 2.98381C17.4186 3.22581 17.0922 3.55215 16.8429 3.96281C16.6009 4.36615 16.4799 4.81348 16.4799 5.30481H14.1919C14.1919 4.37348 14.4192 3.53381 14.8739 2.78581C15.3359 2.03048 15.9409 1.43281 16.6889 0.992812C17.4442 0.545478 18.2729 0.321811 19.1749 0.321811C20.0842 0.321811 20.9129 0.545478 21.6609 0.992812C22.4089 1.44015 23.0066 2.04148 23.4539 2.79681C23.9012 3.54481 24.1249 4.38081 24.1249 5.30481C24.1249 5.81815 24.0186 6.34615 23.8059 6.88881C23.5932 7.43148 23.2962 7.98515 22.9149 8.54981C22.5409 9.11448 22.1046 9.68648 21.6059 10.2658C21.1072 10.8451 20.5719 11.4245 19.9999 12.0038C19.4279 12.5831 18.8449 13.1551 18.2509 13.7198H24.2569V16.0078H14.0929Z" fill="#E7E7EB"/>
</svg>
