<svg xmlns="http://www.w3.org/2000/svg" width="24" height="17" viewBox="0 0 24 17" fill="none"><path d="M6.633 16.2938C5.72367 16.2938 4.90233 16.0885 4.169 15.6778C3.443 15.2598 2.816 14.6841 2.288 13.9508C1.76 13.2175 1.35667 12.3705 1.078 11.4098C0.799333 10.4418 0.66 9.40781 0.66 8.30781C0.66 7.20781 0.799333 6.17381 1.078 5.20581C1.35667 4.23781 1.76 3.39081 2.288 2.66481C2.816 1.93148 3.443 1.35948 4.169 0.948812C4.90233 0.530811 5.72367 0.321811 6.633 0.321811C7.52767 0.321811 8.34167 0.530811 9.075 0.948812C9.80833 1.35948 10.4317 1.93148 10.945 2.66481C11.4657 3.39081 11.8653 4.23781 12.144 5.20581C12.4227 6.17381 12.562 7.20781 12.562 8.30781C12.562 9.40781 12.4227 10.4418 12.144 11.4098C11.8653 12.3705 11.4657 13.2175 10.945 13.9508C10.4317 14.6841 9.80833 15.2598 9.075 15.6778C8.34167 16.0885 7.52767 16.2938 6.633 16.2938ZM6.633 14.0058C7.47633 14.0058 8.17667 13.7418 8.734 13.2138C9.29867 12.6785 9.72033 11.9781 9.999 11.1128C10.2777 10.2475 10.417 9.31248 10.417 8.30781C10.417 7.25181 10.2703 6.29481 9.977 5.43681C9.691 4.57148 9.26567 3.88581 8.701 3.37981C8.14367 2.86648 7.45433 2.60981 6.633 2.60981C5.98033 2.60981 5.412 2.76381 4.928 3.07181C4.45133 3.37981 4.05533 3.80148 3.74 4.33681C3.432 4.87215 3.19733 5.48081 3.036 6.16281C2.882 6.84481 2.805 7.55981 2.805 8.30781C2.805 9.31248 2.948 10.2475 3.234 11.1128C3.52 11.9781 3.94533 12.6785 4.51 13.2138C5.082 13.7418 5.78967 14.0058 6.633 14.0058ZM18.7569 16.2938C17.8256 16.2938 16.9896 16.0775 16.2489 15.6448C15.5156 15.2121 14.9362 14.6328 14.5109 13.9068C14.0856 13.1808 13.8729 12.3741 13.8729 11.4868H16.1609C16.1609 11.9488 16.2709 12.3705 16.4909 12.7518C16.7109 13.1331 17.0152 13.4375 17.4039 13.6648C17.7926 13.8921 18.2436 14.0058 18.7569 14.0058C19.2189 14.0058 19.6479 13.8921 20.0439 13.6648C20.4399 13.4375 20.7589 13.1331 21.0009 12.7518C21.2429 12.3705 21.3639 11.9488 21.3639 11.4868C21.3639 10.9001 21.2099 10.4088 20.9019 10.0128C20.5939 9.61681 20.1649 9.32348 19.6149 9.13281C19.0722 8.93481 18.4452 8.83581 17.7339 8.83581V7.03181C18.7019 7.03181 19.4756 6.84115 20.0549 6.45981C20.6342 6.07848 20.9239 5.51015 20.9239 4.75481C20.9239 4.35881 20.8176 3.99948 20.6049 3.67681C20.3996 3.34681 20.1246 3.08648 19.7799 2.89581C19.4426 2.69781 19.0796 2.59881 18.6909 2.59881C18.2876 2.59881 17.8989 2.69781 17.5249 2.89581C17.1582 3.08648 16.8576 3.34681 16.6229 3.67681C16.3882 3.99948 16.2709 4.35881 16.2709 4.75481H13.9829C13.9829 4.14615 14.1076 3.57415 14.3569 3.03881C14.6136 2.49615 14.9582 2.02315 15.3909 1.61981C15.8309 1.20914 16.3296 0.890145 16.8869 0.662811C17.4516 0.428145 18.0419 0.310812 18.6579 0.310812C19.4646 0.310812 20.2126 0.512478 20.9019 0.915811C21.5986 1.31181 22.1559 1.84715 22.5739 2.52181C22.9992 3.18914 23.2119 3.93348 23.2119 4.75481C23.2119 5.40748 23.0506 6.02715 22.7279 6.61381C22.4126 7.19315 21.9726 7.60381 21.4079 7.84581C21.8992 8.02181 22.3099 8.30048 22.6399 8.68181C22.9772 9.05581 23.2302 9.48848 23.3989 9.97981C23.5676 10.4638 23.6519 10.9661 23.6519 11.4868C23.6519 12.3668 23.4282 13.1735 22.9809 13.9068C22.5336 14.6328 21.9359 15.2121 21.1879 15.6448C20.4472 16.0775 19.6369 16.2938 18.7569 16.2938Z" fill="#E7E7EB"></path></svg>